<?xml version="1.0" encoding="iso-8859-1"?>
<!-- Uploaded to: SVG Repo, www.svgrepo.com, Generator: SVG Repo Mixer Tools -->
<svg version="1.1" id="Layer_1" xmlns="http://www.w3.org/2000/svg" xmlns:xlink="http://www.w3.org/1999/xlink" 
	 viewBox="0 0 482.16 482.16" xml:space="preserve">
<g>
	<path style="fill:#E6E6E6;" d="M400.8,321.46c8.85,0,16.05,7.21,16.05,16.06c0,8.86-7.2,16.06-16.05,16.06
		c-8.86,0-16.06-7.2-16.06-16.06C384.74,328.67,391.94,321.46,400.8,321.46z"/>
	<path style="fill:#E6E6E6;" d="M80.26,321.46c8.85,0,16.06,7.21,16.06,16.06c0,8.86-7.21,16.06-16.06,16.06
		c-8.86,0-16.06-7.2-16.06-16.06C64.2,328.67,71.4,321.46,80.26,321.46z"/>
	<path style="fill:#666666;" d="M47.24,316.49c6.95-10.89,19.14-18.12,33.02-18.12c21.62,0,39.15,17.53,39.15,39.15
		c0,0.86-0.03,1.71-0.08,2.55c-1.32,20.43-18.31,36.6-39.07,36.6s-37.75-16.17-39.07-36.6c-0.05-0.84-0.08-1.69-0.08-2.55
		C41.11,329.78,43.36,322.56,47.24,316.49z M96.32,337.52c0-8.85-7.21-16.06-16.06-16.06c-8.86,0-16.06,7.21-16.06,16.06
		c0,8.86,7.2,16.06,16.06,16.06C89.11,353.58,96.32,346.38,96.32,337.52z"/>
	<path style="fill:#666666;" d="M433.82,316.49c3.87,6.07,6.12,13.29,6.12,21.03c0,0.85-0.03,1.7-0.08,2.54
		c-1.31,20.44-18.29,36.61-39.06,36.61s-37.76-16.17-39.07-36.61c-0.05-0.84-0.08-1.69-0.08-2.54c0-21.62,17.53-39.15,39.15-39.15
		C414.68,298.37,426.87,305.6,433.82,316.49z M416.85,337.52c0-8.85-7.2-16.06-16.05-16.06c-8.86,0-16.06,7.21-16.06,16.06
		c0,8.86,7.2,16.06,16.06,16.06C409.65,353.58,416.85,346.38,416.85,337.52z"/>
	<path style="fill:#CCCCCC;" d="M32.11,337.52c0,0.82,0.02,1.65,0.06,2.55H11.79C5.28,340.07,0,334.79,0,328.28
		c0-3.25,1.32-6.2,3.45-8.34c2.14-2.13,5.09-3.45,8.34-3.45h25.16C33.77,323.01,32.11,330.18,32.11,337.52z"/>
	<path style="fill:#CCCCCC;" d="M482.16,328.27v0.01c0,6.5-5.27,11.78-11.78,11.78h-21.51c0.05-0.89,0.07-1.72,0.07-2.54
		c0-7.33-1.65-14.5-4.82-21.03h26.26C476.89,316.49,482.16,321.77,482.16,328.27z"/>
	<path style="fill:#E6E6E6;" d="M453.35,240.5l-31.94-7.8l-33.38-82.4h-91.27v189.76h55.96c-0.05-0.9-0.07-1.72-0.07-2.54
		c0-26.55,21.6-48.15,48.15-48.15c16.52,0,31.7,8.33,40.61,22.28c1,1.57,1.91,3.18,2.71,4.84h26.26V262.2
		C470.38,251.9,463.35,242.94,453.35,240.5z M318.9,234.63v-62.18h54.21l25.19,62.18H318.9z"/>
	<path style="fill:#E6E6E6;" d="M11.06,105.49v211h25.89c0.8-1.66,1.71-3.28,2.71-4.85c8.9-13.94,24.08-22.27,40.6-22.27
		c26.55,0,48.15,21.6,48.15,48.15c0,0.83-0.02,1.67-0.07,2.55h168.42V105.49H11.06z M205.91,205.39H174.8v31.1h-41.79v-31.1h-31.1
		V163.6h31.1v-31.11h41.79v31.11h31.11L205.91,205.39L205.91,205.39z"/>
	<path style="fill:#F4581B;" d="M356.233,112.195l3.527,38.105h-32l3.518-38.104c0.194-2.1,1.955-3.706,4.064-3.706h16.827
		C354.277,108.49,356.039,110.096,356.233,112.195z"/>
	<polygon style="fill:#76CDCE;" points="373.11,172.45 398.3,234.63 318.9,234.63 318.9,172.45 	"/>
	<polygon style="fill:#F4581B;" points="205.91,163.6 205.91,205.39 174.8,205.39 174.8,236.49 133.01,236.49 133.01,205.39 
		101.91,205.39 101.91,163.6 133.01,163.6 133.01,132.49 174.8,132.49 174.8,163.6 	"/>
	<rect x="296.76" y="150.3" style="fill:#CCCCCC;" width="9.293" height="189.76"/>
	<rect x="11.06" y="268.02" style="fill:#F4581B;" width="459.32" height="16.66"/>
	<rect x="296.76" y="268.02" style="fill:#DB481B;" width="9.29" height="16.66"/>
	<polygon style="fill:#96E0DE;" points="318.9,172.45 381.593,234.63 398.3,234.63 373.11,172.45 	"/>
	<path style="fill:#F7CF52;" d="M454.72,294.45h-7.15c-4.336,0-7.85-3.515-7.85-7.85v-18.25c0-4.336,3.515-7.85,7.85-7.85h7.15
		V294.45z"/>
</g>
</svg>