<?xml version="1.0" encoding="iso-8859-1"?>
<!-- Uploaded to: SVG Repo, www.svgrepo.com, Generator: SVG Repo Mixer Tools -->
<svg height="800px" width="800px" version="1.1" id="Layer_1" xmlns="http://www.w3.org/2000/svg" xmlns:xlink="http://www.w3.org/1999/xlink" 
	 viewBox="0 0 512 512" xml:space="preserve">
<path style="fill:#C91C00;" d="M344.061,141.019c-6.275,0-11.363-5.087-11.363-11.363V78.613c0-10.278-8.363-18.641-18.641-18.641
	H197.943c-10.278,0-18.64,8.363-18.64,18.641v51.044c0,6.275-5.087,11.363-11.363,11.363c-6.275,0-11.363-5.087-11.363-11.363
	V78.613c0-22.81,18.557-41.366,41.365-41.366h116.116c22.81,0,41.366,18.557,41.366,41.366v51.044
	C355.424,135.931,350.336,141.019,344.061,141.019z"/>
<path style="fill:#ED2601;" d="M468.921,474.754H43.079C19.287,474.754,0,455.466,0,431.674V169.488
	c0-23.792,19.287-43.079,43.079-43.079h425.841c23.792,0,43.079,19.287,43.079,43.079v262.187
	C512,455.466,492.713,474.754,468.921,474.754z"/>
<path style="fill:#C91C00;" d="M468.921,126.408h-24.506c23.792,0,43.079,19.287,43.079,43.079v262.187
	c0,23.792-19.287,43.079-43.079,43.079h24.506c23.792,0,43.079-19.287,43.079-43.079V169.488
	C512,145.695,492.713,126.408,468.921,126.408z"/>
<circle style="fill:#37CC8F;" cx="256.004" cy="297.353" r="116.732"/>
<path style="fill:#2AA86F;" d="M256,180.618c-4.138,0-8.225,0.219-12.253,0.64c58.71,6.125,104.479,55.762,104.479,116.093
	s-45.77,109.968-104.479,116.093c4.028,0.42,8.115,0.638,12.253,0.638c64.469,0,116.733-52.262,116.733-116.733
	C372.733,232.882,320.469,180.618,256,180.618z"/>
<polygon style="fill:#FE3200;" points="328.644,275.413 277.938,275.413 277.938,224.707 234.062,224.707 234.062,275.413 
	183.356,275.413 183.356,319.29 234.062,319.29 234.062,369.995 263.275,369.995 277.938,369.995 277.938,319.29 328.644,319.29 "/>
<g>
	<path style="fill:#C91C00;" d="M256,430.496c-73.416,0-133.145-59.728-133.145-133.145S182.584,164.206,256,164.206
		s133.145,59.728,133.145,133.146C389.145,370.767,329.416,430.496,256,430.496z M256,180.438
		c-64.466,0-116.912,52.446-116.912,116.913c0,64.466,52.446,116.912,116.912,116.912s116.912-52.446,116.912-116.912
		S320.466,180.438,256,180.438z"/>
	<path style="fill:#C91C00;" d="M108.828,430.496c4.482,0,8.116-3.634,8.116-8.116c0-4.482-3.634-8.116-8.116-8.116H0l0,0v16.232
		l0,0H108.828z"/>
	<path style="fill:#C91C00;" d="M108.828,185.93H0l0,0v16.232l0,0h108.828c4.482,0,8.116-3.634,8.116-8.116
		C116.944,189.564,113.31,185.93,108.828,185.93z"/>
	<path style="fill:#C91C00;" d="M512,414.263H403.172c-4.483,0-8.116,3.634-8.116,8.116c0,4.482,3.633,8.116,8.116,8.116H512
		L512,414.263L512,414.263z"/>
	<path style="fill:#C91C00;" d="M395.056,194.046c0,4.482,3.633,8.116,8.116,8.116H512V185.93H403.172
		C398.689,185.93,395.056,189.564,395.056,194.046z"/>
</g>
</svg>