<svg xmlns="http://www.w3.org/2000/svg" version="1.1" xmlns:xlink="http://www.w3.org/1999/xlink" xmlns:svgjs="http://svgjs.dev/svgjs" width="128" height="128" viewBox="0 0 128 128"><g transform="matrix(0.8046875,0,0,0.8046875,12.537837224472092,12.760752631578946)"><svg viewBox="0 0 95 95" data-background-color="#ffffff" preserveAspectRatio="xMidYMid meet" height="128" width="128" xmlns="http://www.w3.org/2000/svg" xmlns:xlink="http://www.w3.org/1999/xlink"><g id="tight-bounds" transform="matrix(1,0,0,1,-0.0348984109208601,-0.24049999999999727)"><svg viewBox="0 0 95.06979682184172 95.48100000000001" height="95.48100000000001" width="95.06979682184172"><g><svg viewBox="0 0 95.06979682184172 95.48100000000001" height="95.48100000000001" width="95.06979682184172"><g><svg viewBox="0 0 95.06979682184172 95.48100000000001" height="95.48100000000001" width="95.06979682184172"><g id="textblocktransform"><svg viewBox="0 0 95.06979682184172 95.48100000000001" height="95.48100000000001" width="95.06979682184172" id="textblock"><g><svg viewBox="0 0 95.06979682184172 95.48100000000001" height="95.48100000000001" width="95.06979682184172"><g><svg viewBox="0 0 95.06979682184172 95.48100000000001" height="95.48100000000001" width="95.06979682184172"><g><svg xmlns="http://www.w3.org/2000/svg" xmlns:xlink="http://www.w3.org/1999/xlink" version="1.1" x="0" y="0" viewBox="7.833437910171007 7.651 84.33323542083085 84.69800000000001" enable-background="new 0 0 100 100" xml:space="preserve" height="95.48100000000001" width="95.06979682184172" class="icon-icon-0" data-fill-palette-color="accent" id="icon-0"><g fill="#fe6e63" data-fill-palette-color="accent"><path fill="#fe6e63" d="M60.846 92.349H39.153c-0.276 0-0.5-0.224-0.5-0.5V69.651L19.43 80.75c-0.115 0.065-0.25 0.083-0.38 0.05-0.128-0.034-0.237-0.118-0.303-0.233L7.901 61.781c-0.066-0.115-0.085-0.251-0.051-0.379 0.035-0.128 0.118-0.237 0.233-0.304L27.308 50 8.084 38.9c-0.239-0.138-0.321-0.444-0.183-0.683l10.846-18.786c0.138-0.24 0.443-0.319 0.683-0.183l19.224 11.098V8.151c0-0.276 0.224-0.5 0.5-0.5h21.692c0.276 0 0.5 0.224 0.5 0.5v22.196L80.57 19.249c0.239-0.137 0.546-0.057 0.683 0.183l10.846 18.786c0.139 0.239 0.057 0.545-0.183 0.683L72.692 50l19.224 11.098c0.115 0.066 0.198 0.176 0.233 0.304 0.034 0.128 0.016 0.265-0.051 0.379L81.253 80.567c-0.065 0.115-0.175 0.199-0.303 0.233-0.131 0.034-0.265 0.016-0.38-0.05L61.346 69.651v22.198C61.346 92.125 61.122 92.349 60.846 92.349zM39.653 91.349h20.692V68.785c0-0.179 0.096-0.344 0.25-0.433 0.154-0.089 0.346-0.089 0.5 0l19.542 11.282 10.346-17.92L71.442 50.433c-0.154-0.089-0.25-0.254-0.25-0.433s0.096-0.344 0.25-0.433l19.541-11.282L80.638 20.365 61.096 31.646c-0.154 0.089-0.346 0.089-0.5 0-0.154-0.089-0.25-0.254-0.25-0.433V8.651H39.653v22.562c0 0.179-0.096 0.344-0.25 0.433-0.154 0.089-0.346 0.089-0.5 0L19.362 20.365 9.017 38.284l19.541 11.282c0.154 0.089 0.25 0.254 0.25 0.433s-0.096 0.344-0.25 0.433L9.017 61.714l10.346 17.92 19.541-11.282c0.154-0.089 0.346-0.089 0.5 0 0.154 0.089 0.25 0.254 0.25 0.433V91.349z" data-fill-palette-color="accent"></path></g></svg></g></svg></g></svg></g></svg></g></svg></g><g></g></svg></g><defs></defs></svg><rect width="95.06979682184172" height="95.48100000000001" fill="none" stroke="none" visibility="hidden"></rect></g></svg></g></svg>